<?xml version="1.0" standalone="no"?>
<!DOCTYPE svg PUBLIC "-//W3C//DTD SVG 20010904//EN"
 "http://www.w3.org/TR/2001/REC-SVG-20010904/DTD/svg10.dtd">
<svg version="1.0" xmlns="http://www.w3.org/2000/svg"
 width="162.000000pt" height="76.000000pt" viewBox="0 0 162.000000 76.000000"
 preserveAspectRatio="xMidYMid meet">
<metadata>
Created by potrace 1.16, written by Peter Selinger 2001-2019
</metadata>
<g transform="translate(0.000000,76.000000) scale(0.100000,-0.100000)"
fill="#000000" stroke="none">
<path d="M0 500 l0 -260 260 0 260 0 0 260 0 260 -260 0 -260 0 0 -260z"/>
<path d="M550 501 l0 -261 260 0 260 0 0 260 c0 315 -5 323 -77 128 -39 -108
-53 -134 -70 -136 -18 -3 -26 12 -62 103 -22 59 -41 112 -41 118 0 25 -19 -13
-56 -112 -38 -102 -55 -124 -76 -103 -7 7 -33 67 -58 134 -31 80 -53 124 -64
126 -14 3 -16 -21 -16 -257z"/>
<path d="M1173 744 c-62 -31 -75 -124 -24 -175 59 -59 161 -28 176 53 10 52
-16 105 -59 123 -44 19 -53 18 -93 -1z"/>
<path d="M1361 723 c38 -74 16 -165 -51 -210 -42 -30 -122 -31 -166 -4 l-31
19 -2 -144 -2 -144 255 0 256 0 0 136 c0 126 -1 136 -17 128 -32 -14 -114 -16
-144 -4 -32 13 -59 55 -59 90 0 15 6 20 25 20 18 0 25 -5 25 -18 0 -30 33 -52
76 -52 43 0 64 14 64 42 0 21 -19 32 -86 47 -68 16 -98 47 -92 95 4 36 3 36
-33 36 l-37 0 19 -37z"/>
</g>
</svg>
